<svg class="diagram-root" style="background: #f5f6f6" xmlns="http://www.w3.org/2000/svg" xmlns:xlink="http://www.w3.org/1999/xlink"><style>.diagram-root { font-family: "Helvetica Neue", sans-serif; font-size: 12px; } .t { overflow: visible; } .t-bg { y: 40; fill: #fff;   } .th { fill: #005aa0;   } .tht { fill: #fff; font-size: 14px;  } .tf { fill: #323c46; overflow: visible; } .tf.pk { fill: #005aa0; font-weight: bold; } .tf.fk { font-weight: bold; } .ty { fill: #adb1b5; font-weight: normal; text-anchor: end; } .r { fill: transparent; stroke: #c3c3c3; stroke-width: 1; } .l { stroke: 1; } .i { fill: #c2c7ce; stroke: #c2c7ce; } .i.ix { fill: #afb3b6; stroke: #000; } .fa { fill: transparent; overflow: visible; } .fa .bg.hover { fill: #f7f7f7; } .c { cy: 12; r: 4; stroke: #d2d2dc; fill: #d2d2dc; } .hr { fill: transparent; stroke: #323c46; stroke-opacity: 0.035; stroke-width: 13; } .dc { stroke: #fa5a3c; fill: #fa5a3c; } .x { stroke: white; stroke-width: 1; } .hl .th { fill: #1b9bff; } .hl .tht {  } .fhl .bg { fill: #e7f4ff; } .fhls .bg {  } .r.hl { stroke: #1b9bff; } .dim { opacity: 0.25; }</style><g class="drawing-wrapper" transform="translate(-440, -127) scale(1,1)"><g class="rs"><path d="M 462 376 m -1, 0 a 1,1 0 1,0 2,0 a 1,1 0 1,0 -2,0 M 462 376 m -0.5, 0 a 0.5,0.5 0 1,0 1,0 a 0.5,0.5 0 1,0 -1,0  M462 376 L462 376 450 376 M 462 382 m -1, 0 a 1,1 0 1,0 2,0 a 1,1 0 1,0 -2,0 M 462 382 m -0.5, 0 a 0.5,0.5 0 1,0 1,0 a 0.5,0.5 0 1,0 -1,0  M462 382 L462 382 455 376 462 370 M 462 370 m -1, 0 a 1,1 0 1,0 2,0 a 1,1 0 1,0 -2,0 M 462 370 m -0.5, 0 a 0.5,0.5 0 1,0 1,0 a 0.5,0.5 0 1,0 -1,0  M450 376 C 400 376, 397 621, 455 621 M 467 621 m -1, 0 a 1,1 0 1,0 2,0 a 1,1 0 1,0 -2,0 M 467 621 m -0.5, 0 a 0.5,0.5 0 1,0 1,0 a 0.5,0.5 0 1,0 -1,0  M467 621 L467 621 455 621 M461 627 L461 627 461 615" id="h133153459" class="r"></path><path d="M 462 214 m -1, 0 a 1,1 0 1,0 2,0 a 1,1 0 1,0 -2,0 M 462 214 m -0.5, 0 a 0.5,0.5 0 1,0 1,0 a 0.5,0.5 0 1,0 -1,0  M462 214 L462 214 450 214 M456 220 L456 220 456 208 M450 214 C 404.3333333333333 214, 404.3333333333333 351, 450 351 M 462 351 m -1, 0 a 1,1 0 1,0 2,0 a 1,1 0 1,0 -2,0 M 462 351 m -0.5, 0 a 0.5,0.5 0 1,0 1,0 a 0.5,0.5 0 1,0 -1,0  M462 351 L462 351 450 351 M456 357 L456 357 456 345" id="h221257298" class="r"></path><path d="M 913.73 429 m -1, 0 a 1,1 0 1,0 2,0 a 1,1 0 1,0 -2,0 M 913.73 429 m -0.5, 0 a 0.5,0.5 0 1,0 1,0 a 0.5,0.5 0 1,0 -1,0  M913.73 429 L913.73 429 925.73 429 M 913.73 435 m -1, 0 a 1,1 0 1,0 2,0 a 1,1 0 1,0 -2,0 M 913.73 435 m -0.5, 0 a 0.5,0.5 0 1,0 1,0 a 0.5,0.5 0 1,0 -1,0  M913.73 435 L913.73 435 920.73 429 913.73 423 M 913.73 423 m -1, 0 a 1,1 0 1,0 2,0 a 1,1 0 1,0 -2,0 M 913.73 423 m -0.5, 0 a 0.5,0.5 0 1,0 1,0 a 0.5,0.5 0 1,0 -1,0  M925.73 429 C 990.13 429, 984.73 623, 934.73 623 M 922.73 623 m -1, 0 a 1,1 0 1,0 2,0 a 1,1 0 1,0 -2,0 M 922.73 623 m -0.5, 0 a 0.5,0.5 0 1,0 1,0 a 0.5,0.5 0 1,0 -1,0  M922.73 623 L922.73 623 934.73 623 M928.73 629 L928.73 629 928.73 617" id="h1248694035" class="r"></path><path d="M 763 454 m -1, 0 a 1,1 0 1,0 2,0 a 1,1 0 1,0 -2,0 M 763 454 m -0.5, 0 a 0.5,0.5 0 1,0 1,0 a 0.5,0.5 0 1,0 -1,0  M763 454 L763 454 751 454 M757 460 L757 460 757 448 M751 454 Q 724.77 454, 698.53 402.5 T 646.06 351 M 634.06 351 m -1, 0 a 1,1 0 1,0 2,0 a 1,1 0 1,0 -2,0 M 634.06 351 m -0.5, 0 a 0.5,0.5 0 1,0 1,0 a 0.5,0.5 0 1,0 -1,0  M634.06 351 L634.06 351 646.06 351 M640.06 357 L640.06 357 640.06 345" id="h1130742295" class="r"></path><path d="M 821 224 m -1, 0 a 1,1 0 1,0 2,0 a 1,1 0 1,0 -2,0 M 821 224 m -0.5, 0 a 0.5,0.5 0 1,0 1,0 a 0.5,0.5 0 1,0 -1,0  M821 224 L821 224 809 224 M815 230 L815 230 815 218 M809 224 Q 768.27 224, 727.53 287.5 T 646.06 351 M 634.06 351 m -1, 0 a 1,1 0 1,0 2,0 a 1,1 0 1,0 -2,0 M 634.06 351 m -0.5, 0 a 0.5,0.5 0 1,0 1,0 a 0.5,0.5 0 1,0 -1,0  M634.06 351 L634.06 351 646.06 351 M640.06 357 L640.06 357 640.06 345" id="h1277105345" class="r"></path><path d="M 821 249 m -1, 0 a 1,1 0 1,0 2,0 a 1,1 0 1,0 -2,0 M 821 249 m -0.5, 0 a 0.5,0.5 0 1,0 1,0 a 0.5,0.5 0 1,0 -1,0  M821 249 L821 249 809 249 M 821 255 m -1, 0 a 1,1 0 1,0 2,0 a 1,1 0 1,0 -2,0 M 821 255 m -0.5, 0 a 0.5,0.5 0 1,0 1,0 a 0.5,0.5 0 1,0 -1,0  M821 255 L821 255 814 249 821 243 M 821 243 m -1, 0 a 1,1 0 1,0 2,0 a 1,1 0 1,0 -2,0 M 821 243 m -0.5, 0 a 0.5,0.5 0 1,0 1,0 a 0.5,0.5 0 1,0 -1,0  M809 249 C 648.6 249, 690 623, 740 623 M 752 623 m -1, 0 a 1,1 0 1,0 2,0 a 1,1 0 1,0 -2,0 M 752 623 m -0.5, 0 a 0.5,0.5 0 1,0 1,0 a 0.5,0.5 0 1,0 -1,0  M752 623 L752 623 740 623 M746 629 L746 629 746 617" id="h1882043173" class="r"></path></g><g class="hrs"></g><g class="ts"><svg width="172.06" height="225" x="462" y="294" id="h3299212598" class="t"><rect height="40" width="172.06" class="th"></rect><text x="13" y="25" class="tht">Employees</text><rect height="185" width="172.06" class="t-bg"></rect><text x="13" y="61" class="tf pk">emp_no<tspan x="159.06" class="ty">int</tspan></text><path d="M7,14A2,2 0 0,1 5,12A2,2 0 0,1 7,10A2,2 0 0,1 9,12A2,2 0 0,1 7,14M12.65,10C11.83,7.67 9.61,6 7, 6A6, 6 0 0, 0 1, 12A6, 6 0 0, 0 7, 18C9.61, 18 11.83, 16.33 12.65, 14H17V18H21V14H23V10H12.65Z" class="i pk" transform="translate(126.386171875, 48) scale(0.65)"></path><text x="13" y="86" class="tf fk">emp_title_id<tspan x="159.06" class="ty">varchar(64)</tspan></text><text x="13" y="111" class="tf">birth_date<tspan x="159.06" class="ty">date</tspan></text><text x="13" y="136" class="tf">first_name<tspan x="159.06" class="ty">varchar(64)</tspan></text><text x="13" y="161" class="tf">last_name<tspan x="159.06" class="ty">varchar(64)</tspan></text><text x="13" y="186" class="tf">sex<tspan x="159.06" class="ty">char(1)</tspan></text><text x="13" y="211" class="tf">hire_date<tspan x="159.06" class="ty">date</tspan></text></svg><svg width="162.04" height="100" x="467" y="564" id="h3517680912" class="t"><rect height="40" width="162.04" class="th"></rect><text x="13" y="25" class="tht">Titles</text><rect height="60" width="162.04" class="t-bg"></rect><text x="13" y="61" class="tf pk">title_id<tspan x="149.04" class="ty">varchar(64)</tspan></text><path d="M7,14A2,2 0 0,1 5,12A2,2 0 0,1 7,10A2,2 0 0,1 9,12A2,2 0 0,1 7,14M12.65,10C11.83,7.67 9.61,6 7, 6A6, 6 0 0, 0 1, 12A6, 6 0 0, 0 7, 18C9.61, 18 11.83, 16.33 12.65, 14H17V18H21V14H23V10H12.65Z" class="i pk" transform="translate(67.68648437499999, 48) scale(0.65)"></path><text x="13" y="86" class="tf">title<tspan x="149.04" class="ty">varchar(64)</tspan></text></svg><svg width="122.04" height="100" x="462" y="157" id="h3858243705" class="t"><rect height="40" width="122.04" class="th"></rect><text x="13" y="25" class="tht">Salaries</text><rect height="60" width="122.04" class="t-bg"></rect><text x="13" y="61" class="tf pk">emp_no<tspan x="109.04" class="ty">int</tspan></text><path d="M7,14A2,2 0 0,1 5,12A2,2 0 0,1 7,10A2,2 0 0,1 9,12A2,2 0 0,1 7,14M12.65,10C11.83,7.67 9.61,6 7, 6A6, 6 0 0, 0 1, 12A6, 6 0 0, 0 7, 18C9.61, 18 11.83, 16.33 12.65, 14H17V18H21V14H23V10H12.65Z" class="i pk" transform="translate(76.366171875, 48) scale(0.65)"></path><text x="13" y="86" class="tf">salary<tspan x="109.04" class="ty">float</tspan></text></svg><svg width="170.73" height="100" x="752" y="566" id="h3708248841" class="t"><rect height="40" width="170.73" class="th"></rect><text x="13" y="25" class="tht">Departments</text><rect height="60" width="170.73" class="t-bg"></rect><text x="13" y="61" class="tf pk">dept_no<tspan x="157.73" class="ty">varchar(64)</tspan></text><path d="M7,14A2,2 0 0,1 5,12A2,2 0 0,1 7,10A2,2 0 0,1 9,12A2,2 0 0,1 7,14M12.65,10C11.83,7.67 9.61,6 7, 6A6, 6 0 0, 0 1, 12A6, 6 0 0, 0 7, 18C9.61, 18 11.83, 16.33 12.65, 14H17V18H21V14H23V10H12.65Z" class="i pk" transform="translate(76.37648437499999, 48) scale(0.65)"></path><text x="13" y="86" class="tf">dept_name<tspan x="157.73" class="ty">varchar(64)</tspan></text></svg><svg width="150.73" height="100" x="763" y="372" id="h754932316" class="t"><rect height="40" width="150.73" class="th"></rect><text x="13" y="25" class="tht">Dept_Manager</text><rect height="60" width="150.73" class="t-bg"></rect><text x="13" y="61" class="tf fk">dept_no<tspan x="137.73" class="ty">varchar(64)</tspan></text><text x="13" y="86" class="tf pk">emp_no<tspan x="137.73" class="ty">int</tspan></text><path d="M7,14A2,2 0 0,1 5,12A2,2 0 0,1 7,10A2,2 0 0,1 9,12A2,2 0 0,1 7,14M12.65,10C11.83,7.67 9.61,6 7, 6A6, 6 0 0, 0 1, 12A6, 6 0 0, 0 7, 18C9.61, 18 11.83, 16.33 12.65, 14H17V18H21V14H23V10H12.65Z" class="i pk" transform="translate(105.05617187499999, 73) scale(0.65)"></path></svg><svg width="170.73" height="100" x="821" y="167" id="h3353995054" class="t"><rect height="40" width="170.73" class="th"></rect><text x="13" y="25" class="tht">Dept_Emp</text><rect height="60" width="170.73" class="t-bg"></rect><text x="13" y="61" class="tf pk">emp_no<tspan x="157.73" class="ty">int</tspan></text><path d="M7,14A2,2 0 0,1 5,12A2,2 0 0,1 7,10A2,2 0 0,1 9,12A2,2 0 0,1 7,14M12.65,10C11.83,7.67 9.61,6 7, 6A6, 6 0 0, 0 1, 12A6, 6 0 0, 0 7, 18C9.61, 18 11.83, 16.33 12.65, 14H17V18H21V14H23V10H12.65Z" class="i pk" transform="translate(125.05617187499999, 48) scale(0.65)"></path><text x="13" y="86" class="tf pk">dept_no<tspan x="157.73" class="ty">varchar(64)</tspan></text><path d="M7,14A2,2 0 0,1 5,12A2,2 0 0,1 7,10A2,2 0 0,1 9,12A2,2 0 0,1 7,14M12.65,10C11.83,7.67 9.61,6 7, 6A6, 6 0 0, 0 1, 12A6, 6 0 0, 0 7, 18C9.61, 18 11.83, 16.33 12.65, 14H17V18H21V14H23V10H12.65Z" class="i pk" transform="translate(76.37648437499999, 73) scale(0.65)"></path></svg></g></g><text class="qdbd-link" x="10" y="20">www.quickdatabasediagrams.com</text></svg>